<svg width="108" height="79" viewBox="0 0 108 79" fill="none" xmlns="http://www.w3.org/2000/svg">
<g clip-path="url(#clip0_83_274)">
<path d="M100.691 45.6705H102.489V44.7715L106.086 47.4686L102.489 50.1657V49.2666H100.691V45.6705Z" fill="#E30613"/>
<rect y="45.6708" width="5.39419" height="3.59613" fill="#8C8C8C"/>
<rect x="7.19141" y="45.6708" width="5.39419" height="3.59613" fill="#8C8C8C"/>
<rect x="14.3848" y="45.6708" width="5.39419" height="3.59613" fill="#8C8C8C"/>
<rect x="21.5771" y="45.6708" width="5.39419" height="3.59613" fill="#8C8C8C"/>
<rect x="43.1543" y="45.6708" width="5.39419" height="3.59613" fill="#8C8C8C"/>
<rect x="50.3467" y="45.6708" width="5.39419" height="3.59613" fill="#8C8C8C"/>
<rect x="57.5381" y="45.6708" width="5.39419" height="3.59613" fill="#8C8C8C"/>
<rect x="79.1143" y="45.6708" width="5.39419" height="3.59613" fill="#8C8C8C"/>
<rect x="86.3066" y="45.6708" width="5.39419" height="3.59613" fill="#8C8C8C"/>
<rect x="93.5" y="45.6708" width="5.39419" height="3.59613" fill="#8C8C8C"/>
<path fill-rule="evenodd" clip-rule="evenodd" d="M39.5566 14.3845H56.0988C62.781 14.3846 68.2097 15.5807 71.9544 18.8077C75.8351 22.152 77.1362 26.9839 77.1362 32.3652V32.4597L77.1312 32.5542C76.8797 37.3332 74.2525 40.7628 71.2807 43.4575C69.8002 44.8 68.1372 46.0479 66.4974 47.2367C66.0063 47.5927 65.5203 47.9413 65.0371 48.2879C64.8243 48.4406 64.612 48.5929 64.4 48.7452L87.2053 79.1148H78.215L54.3082 47.3211L57.1537 45.1496C58.4226 44.1812 59.7205 43.2501 60.9313 42.3815C61.3945 42.0492 61.8449 41.7261 62.2761 41.4135C63.8841 40.2479 65.2778 39.192 66.4494 38.1296C68.7489 36.0445 69.8105 34.2803 69.9437 32.2632C69.9275 27.9998 68.8945 25.6653 67.2592 24.256C65.4748 22.7182 62.1829 21.5768 56.0988 21.5768H46.7489V79.1148H39.5566V14.3845Z" fill="#030F77"/>
<path fill-rule="evenodd" clip-rule="evenodd" d="M25.1729 21.5768H0L0 14.3845H32.3651V79.1148H25.1729V21.5768Z" fill="#030F77"/>
<path fill-rule="evenodd" clip-rule="evenodd" d="M57.481 7.19225H0V0H57.5942L57.6503 0.00175455C69.565 0.374087 81.94 4.12264 87.5279 15.4373C94.1879 27.8828 92.437 41.0521 83.9954 50.7948L105.366 79.1148H96.3522L74.5059 50.1395L76.8031 47.9324C84.8211 40.2288 86.8632 29.3954 81.1613 18.7837L81.1299 18.7251L81.1006 18.6654C77.3306 10.9805 68.5344 7.54816 57.481 7.19225Z" fill="#030F77"/>
</g>
<defs>
<clipPath id="clip0_83_274">
<rect width="107.214" height="79" fill="white"/>
</clipPath>
</defs>
</svg>
