<svg width="756" height="250" viewBox="0 0 756 250" fill="none" xmlns="http://www.w3.org/2000/svg">
<path d="M318.183 144.317H323.864V141.476L335.228 149.999L323.864 158.522V155.681H318.183V144.317Z" fill="#E30613"/>
<rect y="144.319" width="17.0455" height="11.3636" fill="#8C8C8C"/>
<rect x="22.7256" y="144.319" width="17.0455" height="11.3636" fill="#8C8C8C"/>
<rect x="45.457" y="144.319" width="17.0455" height="11.3636" fill="#8C8C8C"/>
<rect x="68.1826" y="144.319" width="17.0455" height="11.3636" fill="#8C8C8C"/>
<rect x="136.362" y="144.319" width="17.0455" height="11.3636" fill="#8C8C8C"/>
<rect x="159.092" y="144.319" width="17.0455" height="11.3636" fill="#8C8C8C"/>
<rect x="181.816" y="144.319" width="17.0455" height="11.3636" fill="#8C8C8C"/>
<rect x="250" y="144.319" width="17.0455" height="11.3636" fill="#8C8C8C"/>
<rect x="272.726" y="144.319" width="17.0455" height="11.3636" fill="#8C8C8C"/>
<rect x="295.456" y="144.319" width="17.0455" height="11.3636" fill="#8C8C8C"/>
<path fill-rule="evenodd" clip-rule="evenodd" d="M125.001 45.4547H177.274C198.389 45.4548 215.544 49.2344 227.377 59.4319C239.64 69.9998 243.751 85.2682 243.751 102.273V102.572L243.735 102.87C242.94 117.972 234.639 128.809 225.248 137.324C220.57 141.567 215.315 145.51 210.133 149.266C208.581 150.391 207.045 151.493 205.518 152.588C204.846 153.071 204.175 153.552 203.505 154.033L275.569 250H247.16L171.615 149.533L180.607 142.671C184.617 139.611 188.718 136.669 192.544 133.924C194.008 132.874 195.431 131.853 196.794 130.865C201.875 127.182 206.279 123.846 209.981 120.488C217.247 113.899 220.602 108.325 221.023 101.951C220.972 88.4784 217.708 81.1016 212.54 76.6482C206.901 71.7889 196.499 68.1821 177.274 68.182H147.728V250H125.001V45.4547Z" fill="#030F77"/>
<path fill-rule="evenodd" clip-rule="evenodd" d="M79.5454 68.182H0V45.4547H102.273V250H79.5454V68.182Z" fill="#030F77"/>
<path fill-rule="evenodd" clip-rule="evenodd" d="M181.64 22.7273H0.00195312V0H181.998L182.175 0.00554431C219.825 1.1821 258.929 13.0274 276.587 48.7812C297.632 88.1087 292.1 129.723 265.424 160.51L332.956 250H304.472L235.438 158.439L242.697 151.465C268.034 127.122 274.487 92.8885 256.469 59.3558L256.37 59.1707L256.277 58.9821C244.364 34.6981 216.568 23.8519 181.64 22.7273Z" fill="#030F77"/>
<path d="M463.189 78.2309V84.4824H455.477V109.625H449.147V84.4824H441.416V78.2309H463.189ZM490.766 109.625H483.054L473.063 94.7847V109.625H466.753L466.733 78.2309H476.977C482.839 78.2309 487.65 82.7491 487.65 88.3969C487.65 92.4283 485.215 95.9532 481.846 97.1412L490.766 109.625ZM473.043 84.4824V92.3698L477.094 92.3893C479.236 92.4088 481.145 90.6755 481.145 88.4359C481.145 86.1962 479.217 84.4824 477.094 84.4824H473.043ZM514.817 109.625L512.831 105.243H500.27L498.264 109.625H491.447L506.443 77.4519H506.638L521.653 109.625H514.817ZM502.723 99.8677H510.377L506.56 91.474L502.723 99.8677ZM543.718 78.153H550.048V110.209H549.756L531.118 92.0777V109.664H524.808V77.6467H525.12L543.718 95.739V78.153ZM564.907 110.248C559.766 110.248 555.968 108.106 553.865 104.211L558.909 100.666C560.292 102.886 562.298 103.899 565.005 103.899C567.965 103.899 569.951 102.692 569.951 101.017C569.951 98.7187 566.193 96.9075 562.901 95.2716C559.376 93.5189 555.501 91.5908 555.501 86.5857C555.501 81.1522 560.097 77.5688 565.862 77.5688C570.146 77.5688 573.691 79.341 575.112 83.1386L570.458 86.391C569.523 84.5214 567.712 83.7618 565.959 83.7618C563.603 83.7618 561.85 85.1251 561.85 86.7415C561.85 88.6111 564.226 89.2538 567.829 90.9482C573.028 93.402 576.3 96.0506 576.3 100.88C576.3 106.606 571.626 110.248 564.907 110.248ZM580.117 109.625V78.2309H591.14C597.217 78.2309 602.183 83.0023 602.183 88.8448C602.183 94.6679 597.217 99.4198 591.14 99.4198H586.427V109.625H580.117ZM591.14 93.1878C593.75 93.2073 595.873 91.2208 595.873 88.7864C595.873 86.4105 593.75 84.4824 591.14 84.4824H586.427V93.1683L591.14 93.1878ZM620.684 110.228C611.725 110.228 604.383 102.906 604.383 93.9668C604.383 84.9498 611.725 77.5882 620.703 77.5882C629.681 77.5882 637.043 84.9498 637.043 93.9668C637.043 102.906 629.681 110.228 620.684 110.228ZM620.684 103.841C626.176 103.841 630.655 99.3809 630.655 93.9278C630.655 88.4359 626.176 83.9566 620.684 83.9566C615.211 83.9566 610.752 88.4359 610.752 93.9278C610.752 99.3809 615.211 103.841 620.684 103.841ZM665.185 109.625H657.472L647.482 94.7847V109.625H641.172L641.152 78.2309H651.396C657.258 78.2309 662.069 82.7491 662.069 88.3969C662.069 92.4283 659.634 95.9532 656.265 97.1412L665.185 109.625ZM647.462 84.4824V92.3698L651.513 92.3893C653.655 92.4088 655.564 90.6755 655.564 88.4359C655.564 86.1962 653.636 84.4824 651.513 84.4824H647.462ZM687.269 78.2309V84.4824H679.557V109.625H673.228V84.4824H665.496V78.2309H687.269ZM709.744 84.4435H697.124V90.5781H707.952V96.8686H697.124V103.354H709.744V109.625H690.814V78.2309H709.744V84.4435Z" fill="#030F77"/>
<path d="M421.374 189.125H406.268L386.699 160.057V189.125H374.339L374.301 127.632H394.366C405.848 127.632 415.271 136.482 415.271 147.545C415.271 155.441 410.502 162.346 403.903 164.673L421.374 189.125ZM386.661 139.877V155.327L394.595 155.365C398.791 155.403 402.53 152.008 402.53 147.621C402.53 143.234 398.753 139.877 394.595 139.877H386.661ZM464.328 139.801H439.609V151.817H460.818V164.138H439.609V176.841H464.328V189.125H427.249V127.632H464.328V139.801ZM487.903 189.125V162.727L468.867 127.632H482.829L494.044 148.994L505.259 127.632H519.259L500.186 162.727V189.125H487.903ZM562.48 127.479H574.878V190.269H574.305L537.799 154.754V189.201H525.439V126.487H526.05L562.48 161.926V127.479ZM614.817 190.307C597.27 190.307 582.888 175.964 582.888 158.455C582.888 140.793 597.27 126.373 614.856 126.373C632.441 126.373 646.861 140.793 646.861 158.455C646.861 175.964 632.441 190.307 614.817 190.307ZM614.817 177.795C625.575 177.795 634.349 169.059 634.349 158.378C634.349 147.621 625.575 138.847 614.817 138.847C604.098 138.847 595.363 147.621 595.363 158.378C595.363 169.059 604.098 177.795 614.817 177.795ZM673.335 190.345C663.264 190.345 655.825 186.149 651.706 178.52L661.586 171.577C664.294 175.926 668.223 177.91 673.526 177.91C679.324 177.91 683.215 175.544 683.215 172.264C683.215 167.762 675.853 164.215 669.406 161.01C662.501 157.577 654.91 153.801 654.91 143.997C654.91 133.354 663.913 126.335 675.204 126.335C683.596 126.335 690.539 129.806 693.324 137.245L684.207 143.615C682.376 139.953 678.828 138.466 675.395 138.466C670.779 138.466 667.346 141.136 667.346 144.302C667.346 147.964 672 149.223 679.057 152.542C689.242 157.348 695.651 162.536 695.651 171.997C695.651 183.212 686.496 190.345 673.335 190.345ZM741.313 189.125L737.422 180.542H712.817L708.888 189.125H695.536L724.91 126.106H725.291L754.702 189.125H741.313ZM717.624 170.013H732.615L725.139 153.572L717.624 170.013Z" fill="#030F77"/>
</svg>
