<svg width="196" height="76" viewBox="0 0 196 76" fill="none" xmlns="http://www.w3.org/2000/svg">
<path d="M41.9084 6.12079V9.28284H38.0076V22H34.8061V9.28284H30.8954V6.12079H41.9084ZM55.8569 22H51.9561L46.9027 14.4938V22H43.7111L43.7013 6.12079H48.8827C51.8477 6.12079 54.2808 8.40614 54.2808 11.2628C54.2808 13.3019 53.0495 15.0849 51.3453 15.6857L55.8569 22ZM46.8929 9.28284V13.2723L48.9418 13.2822C50.0254 13.292 50.9907 12.4153 50.9907 11.2825C50.9907 10.1497 50.0155 9.28284 48.9418 9.28284H46.8929ZM68.0225 22L67.0177 19.7836H60.664L59.6494 22H56.2017L63.7867 5.72676H63.8852L71.48 22H68.0225ZM61.9052 17.0648H65.7765L63.8458 12.8192L61.9052 17.0648ZM82.6408 6.08139H85.8422V22.2955H85.6945L76.2674 13.1246V22.0197H73.0758V5.82527H73.2334L82.6408 14.9765V6.08139ZM93.3583 22.3152C90.7577 22.3152 88.8368 21.2317 87.773 19.2615L90.3243 17.4687C91.0237 18.5917 92.0383 19.1039 93.4075 19.1039C94.9048 19.1039 95.9096 18.4932 95.9096 17.646C95.9096 16.4836 94.0084 15.5675 92.3436 14.7401C90.5607 13.8535 88.6004 12.8783 88.6004 10.3467C88.6004 7.59838 90.9252 5.78587 93.8409 5.78587C96.0081 5.78587 97.8009 6.68228 98.52 8.60315L96.1657 10.2482C95.6929 9.30254 94.7768 8.91837 93.8902 8.91837C92.6983 8.91837 91.8117 9.60791 91.8117 10.4255C91.8117 11.3712 93.0135 11.6962 94.8359 12.5532C97.466 13.7944 99.1209 15.1341 99.1209 17.5771C99.1209 20.4732 96.7567 22.3152 93.3583 22.3152ZM101.052 22V6.12079H106.627C109.7 6.12079 112.212 8.53419 112.212 11.4894C112.212 14.4347 109.7 16.8383 106.627 16.8383H104.243V22H101.052ZM106.627 13.6861C107.947 13.6959 109.021 12.6912 109.021 11.4598C109.021 10.2581 107.947 9.28284 106.627 9.28284H104.243V13.6762L106.627 13.6861ZM121.57 22.3054C117.039 22.3054 113.325 18.6015 113.325 14.0801C113.325 9.51926 117.039 5.79572 121.58 5.79572C126.121 5.79572 129.845 9.51926 129.845 14.0801C129.845 18.6015 126.121 22.3054 121.57 22.3054ZM121.57 19.0744C124.348 19.0744 126.614 16.8186 126.614 14.0604C126.614 11.2825 124.348 9.01687 121.57 9.01687C118.802 9.01687 116.547 11.2825 116.547 14.0604C116.547 16.8186 118.802 19.0744 121.57 19.0744ZM144.079 22H140.178L135.125 14.4938V22H131.933L131.923 6.12079H137.105C140.07 6.12079 142.503 8.40614 142.503 11.2628C142.503 13.3019 141.272 15.0849 139.568 15.6857L144.079 22ZM135.115 9.28284V13.2723L137.164 13.2822C138.248 13.292 139.213 12.4153 139.213 11.2825C139.213 10.1497 138.238 9.28284 137.164 9.28284H135.115ZM155.25 6.12079V9.28284H151.349V22H148.147V9.28284H144.237V6.12079H155.25ZM166.617 9.26314H160.234V12.3661H165.711V15.5478H160.234V18.8281H166.617V22H157.043V6.12079H166.617V9.26314Z" fill="#030F77"/>
<path d="M26.7436 61.9678H19.1028L9.20447 47.265V61.9678H2.95289L2.9336 30.8643H13.0828C18.8906 30.8643 23.6564 35.3407 23.6564 40.9362C23.6564 44.9303 21.2445 48.4227 17.9065 49.5997L26.7436 61.9678ZM9.18517 37.0579V44.8724L13.1985 44.8917C15.321 44.911 17.2119 43.1938 17.2119 40.9748C17.2119 38.7559 15.3017 37.0579 13.1985 37.0579H9.18517ZM48.4698 37.0194H35.9666V43.0973H46.6946V49.3296H35.9666V55.7548H48.4698V61.9678H29.715V30.8643H48.4698V37.0194ZM60.3941 61.9678V48.6156L50.7659 30.8643H57.8278L63.5006 41.6694L69.1733 30.8643H76.2545L66.6071 48.6156V61.9678H60.3941ZM98.1158 30.7871H104.387V62.5466H104.097L85.6319 44.583V62.0064H79.3803V30.2854H79.689L98.1158 48.2104V30.7871ZM124.588 62.5659C115.713 62.5659 108.439 55.311 108.439 46.4546C108.439 37.521 115.713 30.2275 124.608 30.2275C133.503 30.2275 140.796 37.521 140.796 46.4546C140.796 55.311 133.503 62.5659 124.588 62.5659ZM124.588 56.2372C130.03 56.2372 134.468 51.8186 134.468 46.416C134.468 40.9748 130.03 36.537 124.588 36.537C119.167 36.537 114.748 40.9748 114.748 46.416C114.748 51.8186 119.167 56.2372 124.588 56.2372ZM154.187 62.5852C149.093 62.5852 145.331 60.4628 143.247 56.6038L148.244 53.0921C149.614 55.2917 151.601 56.295 154.283 56.295C157.216 56.295 159.184 55.0988 159.184 53.4394C159.184 51.1626 155.46 49.3681 152.2 47.7474C148.707 46.0108 144.868 44.1006 144.868 39.1418C144.868 33.7585 149.421 30.2082 155.132 30.2082C159.377 30.2082 162.889 31.9641 164.298 35.7266L159.686 38.9489C158.76 37.0965 156.965 36.344 155.229 36.344C152.894 36.344 151.158 37.6947 151.158 39.2962C151.158 41.1485 153.512 41.7852 157.081 43.4639C162.233 45.895 165.475 48.5192 165.475 53.3043C165.475 58.9771 160.844 62.5852 154.187 62.5852ZM188.571 61.9678L186.603 57.6264H174.157L172.17 61.9678H165.417L180.274 30.0925H180.467L195.343 61.9678H188.571ZM176.588 52.301H184.171L180.39 43.9848L176.588 52.301Z" fill="#030F77"/>
<path d="M160.578 74.1377H162.902V75.2997L167.55 71.8139L162.902 68.3281V69.49H160.578V74.1377Z" fill="#E30613"/>
<rect width="6.97161" height="4.64774" transform="matrix(1 0 0 -1 30.0332 74.2058)" fill="#8C8C8C"/>
<rect width="6.97161" height="4.64774" transform="matrix(1 0 0 -1 39.3291 74.2062)" fill="#8C8C8C"/>
<rect width="6.97161" height="4.64774" transform="matrix(1 0 0 -1 48.624 74.2062)" fill="#8C8C8C"/>
<rect width="6.97161" height="4.64774" transform="matrix(1 0 0 -1 57.9209 74.2062)" fill="#8C8C8C"/>
<rect width="6.97161" height="4.64774" transform="matrix(1 0 0 -1 66.498 74.1965)" fill="#8C8C8C"/>
<rect width="6.97161" height="4.64774" transform="matrix(1 0 0 -1 75.8721 74.1965)" fill="#8C8C8C"/>
<rect width="6.97161" height="4.64774" transform="matrix(1 0 0 -1 113.903 74.1965)" fill="#8C8C8C"/>
<rect width="6.97161" height="4.64774" transform="matrix(1 0 0 -1 123.385 74.1965)" fill="#8C8C8C"/>
<rect width="6.97161" height="4.64774" transform="matrix(1 0 0 -1 85.8066 74.2062)" fill="#8C8C8C"/>
<rect width="6.97161" height="4.64774" transform="matrix(1 0 0 -1 95.1025 74.2062)" fill="#8C8C8C"/>
<rect width="6.97161" height="4.64774" transform="matrix(1 0 0 -1 104.397 74.2062)" fill="#8C8C8C"/>
<rect width="6.97161" height="4.64774" transform="matrix(1 0 0 -1 132.283 74.2062)" fill="#8C8C8C"/>
<rect width="6.97161" height="4.64774" transform="matrix(1 0 0 -1 141.579 74.2062)" fill="#8C8C8C"/>
<rect width="6.97161" height="4.64774" transform="matrix(1 0 0 -1 150.876 74.2062)" fill="#8C8C8C"/>
</svg>
